<svg id="Capa_1" enable-background="new 0 0 512 512" height="512" viewBox="0 0 512 512" width="512" xmlns="http://www.w3.org/2000/svg"><g><path d="m364.158 229.406h-243.78c-4.142 0-7.5 3.358-7.5 7.5s3.358 7.5 7.5 7.5h243.781c4.142 0 7.5-3.358 7.5-7.5s-3.358-7.5-7.501-7.5z"/><path d="m364.158 182.562h-243.78c-4.142 0-7.5 3.358-7.5 7.5s3.358 7.5 7.5 7.5h243.781c4.142 0 7.5-3.358 7.5-7.5s-3.358-7.5-7.501-7.5z"/><path d="m144.328 80.662h12.91c4.142 0 7.5-3.358 7.5-7.5s-3.358-7.5-7.5-7.5h-12.91c-10.979 0-20.164 5.441-25.864 15.321-7.384 12.799-7.399 31.333-.035 44.07 5.681 9.826 14.868 15.235 25.869 15.235h.03 15.628c4.142 0 7.5-3.358 7.5-7.5s-3.358-7.5-7.5-7.5h-15.634c-.005 0-.011 0-.016 0-5.583 0-9.92-2.605-12.89-7.742-4.695-8.121-4.677-20.888.042-29.066 2.991-5.188 7.322-7.818 12.87-7.818z"/><path d="m194.911 134.133c1.584 3.771 4.875 6.135 8.59 6.17h.088c3.717 0 6.931-2.252 8.607-6.04.084-.19.16-.383.228-.579l20.129-58.067c1.356-3.914-.716-8.186-4.63-9.543-3.915-1.355-8.187.717-9.543 4.63l-14.798 42.688-14.798-42.688c-1.357-3.914-5.631-5.985-9.543-4.63-3.914 1.357-5.986 5.629-4.63 9.543l20.129 58.067c.052.152.109.302.171.449z"/><path d="m217.369 384.969c4.142 0 7.5-3.358 7.5-7.5s-3.358-7.5-7.5-7.5h-96.991c-4.142 0-7.5 3.358-7.5 7.5s3.358 7.5 7.5 7.5z"/><path d="m428.623 344.03c-3.176-2.658-7.906-2.239-10.565.937l-54.857 65.535-25.921-22.029c-3.156-2.683-7.89-2.299-10.572.858-2.683 3.156-2.298 7.89.858 10.572l31.679 26.922c1.361 1.157 3.085 1.785 4.857 1.785.211 0 .423-.009.635-.027 1.992-.169 3.834-1.126 5.116-2.659l59.707-71.33c2.658-3.175 2.239-7.905-.937-10.564z"/><path d="m468.578 302.168c-13.48-13.485-29.542-23.442-47.065-29.425v-63.354c0-4.142-3.358-7.5-7.5-7.5s-7.5 3.358-7.5 7.5v59.281c-8.065-1.645-16.354-2.493-24.774-2.493-17.105 0-33.674 3.484-48.908 10.103h-212.453c-4.142 0-7.5 3.358-7.5 7.5s3.358 7.5 7.5 7.5h186.962c-4.346 3.325-8.505 6.953-12.439 10.889-.001.001-.002.002-.003.003-6.472 6.483-12.06 13.519-16.781 20.952h-157.739c-4.142 0-7.5 3.358-7.5 7.5s3.358 7.5 7.5 7.5h149.624c-15.341 33.823-14.607 73.227 2.201 106.518h-203.098v-429.642h264.499l-.048 37.956c0 17.434 14.185 31.617 31.62 31.617h41.335v90.213c0 4.142 3.358 7.5 7.5 7.5s7.5-3.358 7.5-7.5l-.028-96.354c0-4.632-2.452-6.945-4.423-8.804-.348-.328-66.914-63.892-66.914-63.892l-1.022-.975c-2.555-2.448-4.97-4.761-9.567-4.761h-271.95c-7.445 0-13.502 6.06-13.502 13.508v28.604h-33.068c-7.445 0-13.502 6.06-13.502 13.508v199.395c0 4.142 3.358 7.5 7.5 7.5s7.5-3.358 7.5-7.5v-197.903h31.57v389.023c0 7.448 6.057 13.508 13.502 13.508h213.569c4.027 5.75 8.599 11.231 13.725 16.364 3.878 3.88 7.975 7.461 12.254 10.748h-284.62v-197.11c0-4.142-3.358-7.5-7.5-7.5s-7.5 3.358-7.5 7.5v198.602c0 7.448 6.057 13.508 13.502 13.508h311.465c15.324 6.713 32.01 10.245 49.238 10.245 32.798 0 63.637-12.782 86.842-35.996 47.845-47.926 47.845-125.906-.004-173.836zm-119.986-277.176 46.694 44.581h-30.108c-9.165 0-16.62-7.454-16.62-16.608zm109.377 440.411c-20.368 20.376-47.44 31.597-76.23 31.597-15.387 0-30.282-3.208-43.926-9.303-.313-.174-.641-.321-.979-.449-11.505-5.28-22.103-12.62-31.322-21.842-35.057-35.115-40.853-88.602-17.405-129.801.65-.729 1.158-1.584 1.484-2.526 4.384-7.235 9.686-14.064 15.921-20.309 9.301-9.303 20.002-16.691 31.624-21.98.339-.128.669-.275.983-.449 13.561-6.006 28.349-9.165 43.62-9.165 10.275 0 20.329 1.437 29.939 4.201.115.038.231.069.348.101 17.182 5.006 32.93 14.278 45.939 27.291 42.013 42.083 42.013 110.555.004 152.634z"/></g></svg>