<svg height="512" viewBox="0 0 60 60" width="512" xmlns="http://www.w3.org/2000/svg"><g id="Page-1" fill="none" fill-rule="evenodd"><g id="058---Photo-Portfolio" fill="rgb(0,0,0)" fill-rule="nonzero" transform="translate(-1)"><path id="Shape" d="m58 0h-54c-1.70524172.05441563-3.04599736 1.47651044-3 3.182v43.636c-.04599736 1.7054896 1.29475828 3.1275844 3 3.182h17.382l-2 4h-3.382c-1.6568542 0-3 1.3431458-3 3s1.3431458 3 3 3h30c1.6568542 0 3-1.3431458 3-3s-1.3431458-3-3-3h-3.382l-2-4h17.382c1.7052417-.0544156 3.0459974-1.4765104 3-3.182v-43.636c.0459974-1.70548956-1.2947583-3.12758437-3-3.182zm-11 57c0 .5522847-.4477153 1-1 1h-30c-.5522847 0-1-.4477153-1-1s.4477153-1 1-1h30c.5522847 0 1 .4477153 1 1zm-6.618-3h-18.764l2-4h14.764zm17.618-6h-54c-.59661794-.0616152-1.03807599-.5834187-1-1.182v-2.818h6c.55228475 0 1-.4477153 1-1s-.44771525-1-1-1h-6v-38.818c-.03807599-.59858134.40338206-1.12038476 1-1.182h54c.5966179.06161524 1.038076.58341866 1 1.182v38.818h-46c-.5522847 0-1 .4477153-1 1s.4477153 1 1 1h46v2.818c.038076.5985813-.4033821 1.1203848-1 1.182z"/><path id="Shape" d="m16 35h30c1.1045695 0 2-.8954305 2-2h6c1.1045695 0 2-.8954305 2-2v-20c0-1.1045695-.8954305-2-2-2h-6v-2c0-1.1045695-.8954305-2-2-2h-30c-1.1045695 0-2 .8954305-2 2v2h-6c-1.1045695 0-2 .8954305-2 2v20c0 1.1045695.8954305 2 2 2h6c0 1.1045695.8954305 2 2 2zm0-2v-2.648l10.993-13.743 10.221 13.009c.2185031.2876821.5751798.4351501.9330427.3857666.357863-.0493835.6612699-.2879401.7936927-.6240484.1324228-.3361084.0732717-.7175087-.1547354-.9977182l-2.532-3.222 3.746-3.746 6 6v4.586.009.991zm38-22v20h-6v-20zm-38-4h30v3 14.586l-5.293-5.293c-.3904999-.3903819-1.0235001-.3903819-1.414 0l-4.283 4.283-7.224-9.194c-.1895522-.2411356-.4792812-.3819454-.786-.382-.3037783-.000114-.5911385.1378631-.781.375l-10.219 12.773zm-8 24v-20h6v20z"/><path id="Shape" d="m37 17c2.209139 0 4-1.790861 4-4s-1.790861-4-4-4-4 1.790861-4 4 1.790861 4 4 4zm0-6c1.1045695 0 2 .8954305 2 2s-.8954305 2-2 2-2-.8954305-2-2 .8954305-2 2-2z"/><circle id="Oval" cx="31" cy="38" r="1"/><circle id="Oval" cx="35" cy="38" r="1"/><circle id="Oval" cx="39" cy="38" r="1"/><circle id="Oval" cx="27" cy="38" r="1"/><circle id="Oval" cx="23" cy="38" r="1"/></g></g></svg>